<svg xmlns="http://www.w3.org/2000/svg" version="1.1" xmlns:xlink="http://www.w3.org/1999/xlink" xmlns:svgjs="http://svgjs.com/svgjs" width="1440" height="560" preserveAspectRatio="none" viewBox="0 0 1440 560"><g mask="url(&quot;#SvgjsMask1001&quot;)" fill="none"><rect width="1440" height="560" x="0" y="0" fill="rgba(255, 212, 98, 1)"></rect><path d="M0,568.55C102.948,549.033,176.954,468.651,268.958,418.506C370.066,363.399,496.442,349.754,567.577,259.204C645.68,159.785,702.261,26.31,673.844,-96.884C645.682,-218.974,520.023,-287.18,423.199,-366.704C341.197,-434.054,250.421,-479.984,153.851,-523.968C41.007,-575.364,-73.424,-689.081,-189.631,-645.824C-307.653,-601.892,-312.911,-435.01,-376.752,-326.458C-427.03,-240.969,-491.093,-168.673,-525.053,-75.491C-566.295,37.671,-629.05,156.152,-594.714,271.597C-559.442,390.191,-454.286,479.363,-343.59,534.636C-238.498,587.111,-115.409,590.43,0,568.55" fill="#ffc11b"></path><path d="M1440 1127.21C1551.255 1147.976 1665.538 1118.627 1767.673 1069.8690000000001 1879.325 1016.568 1995.5839999999998 949.74 2047.246 837.3199999999999 2098.941 724.83 2064.073 595.252 2041.741 473.483 2020.1860000000001 355.948 2013.759 218.2 1920.095 143.99599999999998 1827.201 70.40199999999999 1684.982 145.084 1574.171 103.05700000000002 1448.21 55.28399999999999 1371.56-151.255 1242.377-113.04200000000003 1113.079-74.79499999999996 1150.291 133.25900000000001 1081.0140000000001 248.937 1028.201 337.123 904.983 379.28700000000003 886.928 480.48 868.808 582.034 934.664 678.235 988.7429999999999 766.082 1037.719 845.6410000000001 1109.576 902.274 1182.519 960.648 1263.979 1025.838 1337.438 1108.066 1440 1127.21" fill="#ffe7a9"></path></g><defs><mask id="SvgjsMask1001"><rect width="1440" height="560" fill="#ffffff"></rect></mask></defs></svg>